<svg width="287" height="341" viewBox="0 0 287 341" fill="none" xmlns="http://www.w3.org/2000/svg">
<path d="M60.8512 340.803V294.109C60.8512 286.736 55.1168 281.001 47.744 281.001H0.640015V13.1232C0.640015 5.75039 6.37442 0.0159912 13.7472 0.0159912H273.843C281.216 0.0159912 286.95 5.75039 286.95 13.1232V327.696C286.95 335.069 281.216 340.803 273.843 340.803H60.8512Z" fill="white"/>
<path d="M60.8512 340.803L0.640015 280.592H47.3344C54.7072 280.592 60.4416 286.326 60.4416 293.699V340.803H60.8512Z" fill="#E6E9EE"/>
<path d="M261.555 34.0128H26.4448V51.216H261.555V34.0128Z" fill="#E6E9EE"/>
<path d="M261.555 72.1056H26.4448V89.3088H261.555V72.1056Z" fill="#E6E9EE"/>
<path d="M261.555 110.198H26.4448V127.402H261.555V110.198Z" fill="#E6E9EE"/>
<path d="M128.026 147.882H26.4448V165.085H128.026V147.882Z" fill="#E6E9EE"/>
<path d="M128.026 185.155H26.4448V202.358H128.026V185.155Z" fill="#E6E9EE"/>
<path d="M128.026 222.019H26.4448V239.223H128.026V222.019Z" fill="#E6E9EE"/>
<path d="M260.135 254.607C260.093 251.113 259.584 247.742 258.749 244.503L269.721 235.36L259.982 218.944L246.705 224.189C241.772 219.564 235.744 216.115 229.049 214.262L226.62 200.207L207.534 200.434L205.44 214.543C198.79 216.555 192.846 220.146 188.024 224.887L174.626 219.959L165.28 236.601L176.467 245.482C175.709 248.739 175.28 252.121 175.322 255.615C175.363 259.109 175.872 262.479 176.707 265.719L165.735 274.862L175.474 291.278L188.751 286.033C193.684 290.657 199.712 294.107 206.407 295.96L208.836 310.015L227.922 309.788L230.016 295.679C236.666 293.667 242.61 290.076 247.432 285.336L260.83 290.264L270.176 273.621L258.989 264.741C259.747 261.483 260.176 258.101 260.135 254.607ZM218.073 284.215C201.999 284.406 188.815 271.53 188.624 255.457C188.433 239.383 201.308 226.198 217.381 226.007C233.455 225.816 246.64 238.692 246.831 254.765C247.022 270.839 234.146 284.024 218.073 284.215Z" fill="#E56353"/>
<path d="M217.381 226.007C201.308 226.199 188.433 239.384 188.624 255.457C188.815 271.531 202 284.406 218.073 284.215C234.147 284.024 247.022 270.839 246.831 254.765C246.64 238.691 233.454 225.816 217.381 226.007ZM218.02 279.719C204.429 279.881 193.28 268.994 193.119 255.403C192.957 241.813 203.844 230.665 217.435 230.503C231.026 230.342 242.174 241.228 242.335 254.818C242.497 268.41 231.61 279.558 218.02 279.719Z" fill="#D15241"/>
<path d="M205.449 168.366C204.667 166.171 203.617 164.156 202.389 162.294L207.33 154.155L197.638 145.91L190.401 152.089C186.289 150.24 181.742 149.369 177.119 149.649L172.547 141.312L160.561 145.583L162.292 154.933C158.534 157.64 155.562 161.19 153.547 165.222L144.033 165.013L141.739 177.529L150.713 180.709C150.94 182.927 151.401 185.153 152.183 187.347C152.965 189.541 154.015 191.556 155.242 193.419L150.302 201.558L159.994 209.803L167.231 203.623C171.343 205.473 175.89 206.344 180.513 206.064L185.085 214.401L197.071 210.13L195.34 200.78C199.098 198.073 202.07 194.523 204.085 190.49L213.599 190.7L215.893 178.183L206.918 175.004C206.692 172.785 206.23 170.559 205.449 168.366ZM185.329 196.134C175.234 199.731 164.135 194.464 160.538 184.369C156.94 174.275 162.207 163.175 172.302 159.578C182.397 155.981 193.496 161.248 197.093 171.342C200.691 181.437 195.424 192.536 185.329 196.134Z" fill="#44C4A1"/>
<path d="M172.302 159.579C162.207 163.176 156.94 174.275 160.538 184.37C164.135 194.464 175.234 199.732 185.329 196.134C195.424 192.537 200.691 181.437 197.094 171.343C193.496 161.248 182.397 155.981 172.302 159.579ZM184.323 193.311C175.788 196.353 166.403 191.899 163.361 183.364C160.32 174.828 164.773 165.444 173.308 162.402C181.843 159.361 191.228 163.814 194.27 172.349C197.312 180.884 192.858 190.269 184.323 193.311Z" fill="#007D7C"/>
</svg>