<svg width="2100" height="2100" viewBox="0 0 2100 2100" fill="none" xmlns="http://www.w3.org/2000/svg">
<rect width="2100" height="2100" rx="157" fill="url(#paint0_linear_533_209)"/>
<mask id="mask0_533_209" style="mask-type:luminance" maskUnits="userSpaceOnUse" x="566" y="405" width="1173" height="1290">
<path d="M566.039 405H1738.4V1694.73H566.039V405Z" fill="white"/>
</mask>
<g mask="url(#mask0_533_209)">
<path d="M1172.61 406.469C1198.69 409.885 1224.93 412.233 1250.81 416.908C1308.9 427.423 1364.77 446.258 1418.25 473.433C1467.75 498.604 1513.42 530.282 1554.67 569.517C1600.97 613.543 1639.05 664.877 1668.94 723.539C1697.25 779.129 1716.33 838.402 1727.78 900.613C1733.42 931.357 1737.08 962.367 1737.99 993.893C1740.15 1067.29 1727.24 1137.19 1699.5 1203.81C1681.46 1247.11 1657.67 1286.33 1628.16 1321.42C1595.8 1359.91 1558.56 1391.25 1516.46 1415.88C1471.88 1441.97 1424.55 1458.97 1374.81 1468.34C1348.34 1473.34 1321.76 1476.78 1294.87 1476.87C1290.76 1476.87 1286.67 1477.81 1282.57 1477.9C1256.12 1478.53 1230.1 1474.93 1204.25 1469.05C1169.26 1461.07 1135.08 1450.1 1102.73 1433.46C1085.46 1424.57 1069.09 1413.63 1052.31 1403.61C1050.38 1402.45 1048.48 1401.25 1045.49 1399.39C1045.49 1402.83 1045.49 1405 1045.49 1407.16C1045.32 1457.6 1045.22 1508.04 1044.93 1558.47C1044.74 1593.87 1044.29 1629.27 1043.92 1664.65C1043.79 1677.11 1043.94 1689.59 1043.32 1702.02C1042.66 1715.26 1041.48 1728.49 1040.09 1741.65C1037.96 1761.84 1035.67 1782 1033.02 1802.11C1029.3 1830.33 1025.19 1858.48 1021.2 1886.67C1020.31 1893.06 1019.2 1899.43 1018.21 1905.69C1012.48 1907.45 846.318 1907.85 837.755 1906.19C837.755 1905.66 837.58 1905.03 837.793 1904.57C846.977 1884.19 848.372 1861.63 852.887 1839.93C860.617 1802.91 863.775 1765.28 867.03 1727.59C868.658 1708.79 870.731 1690.01 872.533 1671.22C872.804 1668.41 872.649 1665.57 872.649 1662.73C872.649 1530.34 872.649 1397.98 872.649 1265.6C872.649 1261.96 872.649 1258.31 872.649 1254.06C935.598 1254.06 998.044 1254.06 1060.59 1254.06C1064.79 1264.95 1068.78 1275.98 1073.28 1286.75C1081.4 1306.17 1092.34 1323.58 1105.69 1339.21C1137.83 1376.8 1178.58 1396.82 1223.45 1408.17C1243.04 1413.13 1262.86 1416.47 1283.09 1417.49C1316.39 1419.11 1348.21 1412.68 1378.92 1398.94C1408.19 1385.85 1433.9 1366.8 1456.98 1343.12C1495.28 1303.73 1521.58 1255.93 1539.77 1202.47C1552.65 1164.69 1560.33 1125.57 1564.1 1085.42C1566.66 1058.05 1567.69 1030.67 1566.39 1003.28C1564.43 961.775 1560.07 920.536 1550 880.29C1537.39 829.948 1513.98 786.075 1482.67 747.069C1473.97 736.249 1465.18 725.466 1455.93 715.219C1433.77 690.658 1408.04 671.365 1380.33 655.125C1339.82 631.367 1297.08 613.982 1252.57 601.749C1224.03 593.887 1195.13 588.429 1165.85 584.841C1134.15 580.929 1102.4 580.28 1070.72 582.418C1014.34 586.215 959.933 599.612 909.171 627.798C857.614 656.423 816.268 697.319 788.116 752.908C771.182 786.323 755.915 820.807 749.792 858.993C747.642 872.294 746.382 885.824 745.491 899.316C744.619 912.559 744.464 925.88 744.503 939.162C744.542 950.421 745.317 961.699 745.762 972.71C739.698 974.867 583.981 975.649 569.953 973.855C569.682 973.206 569.101 972.462 569.101 971.718C569.004 948.226 567.977 924.658 569.14 901.243C571.93 845.501 582.954 791.667 602.484 739.97C622.13 687.968 649.003 640.927 682.735 598.581C714.394 558.812 750.819 525.206 792.127 498.05C822.352 478.185 854.514 462.803 887.607 449.655C918.219 437.48 949.529 427.805 981.478 420.992C1003.45 416.316 1025.75 413.263 1047.95 409.924C1058.4 408.359 1068.98 407.824 1080.83 406.737C1086.41 405.935 1090.99 408.53 1094.9 405C1115.63 405 1136.36 405 1158.18 405.592C1163.7 406.279 1168.18 406.374 1172.61 406.469Z" fill="white"/>
</g>
<mask id="mask1_533_209" style="mask-type:luminance" maskUnits="userSpaceOnUse" x="362" y="1002" width="800" height="693">
<path d="M362 1002.71H1161.24V1694.73H362V1002.71Z" fill="white"/>
</mask>
<g mask="url(#mask1_533_209)">
<path d="M549.956 1545.94C554.083 1529.68 556.505 1513.89 556.524 1497.62C556.544 1482.06 557.299 1466.53 557.416 1450.98C557.474 1443.65 556.486 1436.32 556.505 1428.99C556.757 1363.82 557.144 1298.67 557.493 1233.5C557.493 1230.98 557.493 1228.47 557.493 1224.74C544.318 1224.17 531.511 1224.55 518.724 1224.48C505.781 1224.4 492.839 1224.46 479.916 1224.46C466.721 1224.46 453.527 1224.46 440.332 1224.46C427.39 1224.46 414.467 1224.46 401.524 1224.46C388.64 1224.46 375.775 1224.46 362.154 1224.46C362.949 1215.74 362.949 1207.78 364.499 1200.18C367.463 1185.6 370.699 1170.99 374.903 1156.79C384.067 1125.91 399.18 1098.41 419.156 1074.75C445.796 1043.2 477.823 1020.5 516.67 1010.65C530.562 1007.12 544.57 1005.08 558.811 1005.08C755.68 1005.06 952.569 1005.06 1149.44 1005.06C1152.75 1005.06 1156.06 1005.06 1159.82 1005.06C1159.82 1078.24 1159.82 1150.68 1159.82 1224.23C1149.65 1224.72 1139.4 1224.38 1129.17 1224.44C1118.83 1224.51 1108.48 1224.46 1098.13 1224.46C1087.77 1224.46 1077.42 1224.46 1067.07 1224.46C1056.73 1224.46 1046.38 1224.46 1036.04 1224.46C1025.69 1224.46 1015.34 1224.46 1005 1224.46C994.651 1224.46 984.286 1224.46 973.939 1224.46C963.864 1224.46 953.77 1224.46 943.676 1224.46C933.329 1224.46 922.983 1224.46 912.637 1224.46C902.291 1224.46 891.944 1224.46 881.579 1224.46C871.232 1224.46 860.886 1224.46 850.54 1224.46C840.194 1224.46 829.847 1224.46 819.501 1224.46C809.155 1224.46 798.809 1224.46 788.443 1224.46C778.174 1224.46 767.886 1224.46 756.707 1224.46C756.707 1228.62 756.707 1231.94 756.707 1235.26C756.707 1321.15 756.862 1407.05 756.629 1492.94C756.532 1530.76 750.933 1567.77 740.839 1603.95C724.738 1661.62 698.504 1713.18 662.234 1758.49C631.447 1796.92 595.507 1828.43 554.548 1853.08C515.004 1876.86 472.979 1892.76 428.63 1901.13C407.531 1905.1 386.237 1907.51 364.828 1906.99C362.987 1900.33 365.429 1707.86 367.541 1695.15C371.106 1694.77 374.864 1694.23 378.623 1693.95C421.267 1690.84 458.836 1673.95 491.463 1643.85C519.673 1617.82 538.874 1585.15 549.956 1545.94Z" fill="white"/>
</g>
<defs>
<linearGradient id="paint0_linear_533_209" x1="1050" y1="0" x2="1050" y2="2100" gradientUnits="userSpaceOnUse">
<stop stop-color="#31585F"/>
<stop offset="0.437315"/>
<stop offset="1" stop-color="#4C3C72"/>
</linearGradient>
</defs>
</svg>
