<svg width="32" height="32" viewBox="0 0 32 32" fill="none" xmlns="http://www.w3.org/2000/svg">
<path fill-rule="evenodd" clip-rule="evenodd" d="M26.7431 14.373C25.9587 8.34873 20.4391 4.10101 14.4148 4.88545C8.39057 5.6699 4.14285 11.1895 4.92729 17.2137C5.71174 23.238 11.2313 27.4857 17.2556 26.7013C23.2798 25.9168 27.5276 20.3973 26.7431 14.373ZM14.9916 11.2256L22.2808 14.954L17.3226 15.5996L17.8365 19.5455C17.9001 20.0343 17.9319 20.2786 17.8476 20.4251C17.7741 20.5527 17.6482 20.6414 17.5034 20.6676C17.3371 20.6977 17.1177 20.5855 16.6788 20.3611L9.38962 16.6326L14.3478 15.987L13.834 12.0412C13.7703 11.5524 13.7385 11.308 13.8228 11.1616C13.8963 11.034 14.0222 10.9453 14.167 10.9191C14.3333 10.8889 14.5528 11.0012 14.9916 11.2256Z" fill="url(#paint0_linear_3049_343)"/>
<path d="M26.2473 14.4376C26.9961 20.188 22.9415 25.4567 17.191 26.2055C11.4406 26.9543 6.1719 22.8996 5.42311 17.1492C4.67432 11.3987 8.72896 6.13006 14.4794 5.38127C20.2298 4.63248 25.4985 8.68712 26.2473 14.4376ZM22.5084 14.5088L15.2189 10.7802C15.0085 10.6726 14.8198 10.5757 14.6631 10.5128C14.5116 10.452 14.3048 10.3864 14.0778 10.4275C13.7882 10.48 13.5364 10.657 13.3895 10.912C13.2744 11.112 13.2668 11.3293 13.2731 11.4925C13.2795 11.6612 13.3076 11.8712 13.3381 12.1054L13.7874 15.5558L7.72916 16.3447L9.162 17.0779L16.4516 20.8065C16.6619 20.9141 16.8506 21.0111 17.0073 21.0739C17.1588 21.1347 17.3656 21.2003 17.5926 21.1592C17.8822 21.1067 18.134 20.9297 18.2809 20.6747C18.3961 20.4747 18.4036 20.2574 18.3974 20.0942C18.3909 19.9256 18.3628 19.7155 18.3323 19.4813L17.883 16.0309L23.9413 15.2421L22.5084 14.5088Z" stroke="white" stroke-opacity="0.19"/>
<defs>
<linearGradient id="paint0_linear_3049_343" x1="21.0533" y1="9.14999" x2="18.9643" y2="37.0657" gradientUnits="userSpaceOnUse">
<stop stop-color="#FFB366"/>
<stop offset="0.489583" stop-color="#E9766F"/>
<stop offset="1" stop-color="#C04350"/>
</linearGradient>
</defs>
</svg>
