<svg width="1115" height="819" viewBox="0 0 1115 819" fill="none" xmlns="http://www.w3.org/2000/svg">
<mask id="path-1-outside-1_358_67" maskUnits="userSpaceOnUse" x="133" y="130" width="850" height="416" fill="black">
<rect fill="white" x="133" y="130" width="850" height="416"/>
<path fill-rule="evenodd" clip-rule="evenodd" d="M557.06 138.38C559.679 133.966 564.839 131.677 569.827 132.888C614.969 143.85 630.016 162.037 627.105 217.127C627.006 218.996 626.496 220.759 625.554 222.376C615.164 240.209 548.169 355.332 487.939 462C422.439 578 266.445 565 209.939 462C163.023 376.482 154.375 359.21 152.791 355.81C152.538 355.267 152.318 354.71 152.089 354.156C127.546 294.675 128.284 263.64 152.439 213C177.833 165.79 201.15 148.096 256.76 131.498C257.86 131.169 259.022 131 260.17 131H398.103C399.968 131 401.831 131.441 403.489 132.295C444.811 153.59 454.624 174.306 448.02 221.033C447.204 226.809 442.181 231 436.348 231H287.22C285.712 231 284.188 231.292 282.791 231.858C232.364 252.292 228.654 273.934 248.439 322.5L294.439 401.5C337.161 460.904 360.521 463.103 400.939 401.5L557.06 138.38ZM921.262 132.977C916.793 132.59 912.545 134.94 910.303 138.825L727.894 455C726.946 456.643 726.395 458.525 726.317 460.42C723.987 517.41 741.556 531.263 786.565 544.068C791.788 545.554 797.331 543.226 800.033 538.517L980.255 224.458C981.364 222.524 981.916 220.286 981.826 218.058C979.351 156.876 965.465 136.809 921.262 132.977ZM548.151 459.92C548.229 458.025 548.78 456.143 549.728 454.5L732.137 138.325C734.379 134.44 738.627 132.09 743.096 132.477C787.299 136.309 801.185 156.376 803.66 217.558C803.75 219.786 803.198 222.024 802.089 223.958L621.867 538.017C619.165 542.726 613.622 545.054 608.399 543.568C563.39 530.763 545.821 516.91 548.151 459.92Z"/>
</mask>
<path fill-rule="evenodd" clip-rule="evenodd" d="M557.06 138.38C559.679 133.966 564.839 131.677 569.827 132.888C614.969 143.85 630.016 162.037 627.105 217.127C627.006 218.996 626.496 220.759 625.554 222.376C615.164 240.209 548.169 355.332 487.939 462C422.439 578 266.445 565 209.939 462C163.023 376.482 154.375 359.21 152.791 355.81C152.538 355.267 152.318 354.71 152.089 354.156C127.546 294.675 128.284 263.64 152.439 213C177.833 165.79 201.15 148.096 256.76 131.498C257.86 131.169 259.022 131 260.17 131H398.103C399.968 131 401.831 131.441 403.489 132.295C444.811 153.59 454.624 174.306 448.02 221.033C447.204 226.809 442.181 231 436.348 231H287.22C285.712 231 284.188 231.292 282.791 231.858C232.364 252.292 228.654 273.934 248.439 322.5L294.439 401.5C337.161 460.904 360.521 463.103 400.939 401.5L557.06 138.38ZM921.262 132.977C916.793 132.59 912.545 134.94 910.303 138.825L727.894 455C726.946 456.643 726.395 458.525 726.317 460.42C723.987 517.41 741.556 531.263 786.565 544.068C791.788 545.554 797.331 543.226 800.033 538.517L980.255 224.458C981.364 222.524 981.916 220.286 981.826 218.058C979.351 156.876 965.465 136.809 921.262 132.977ZM548.151 459.92C548.229 458.025 548.78 456.143 549.728 454.5L732.137 138.325C734.379 134.44 738.627 132.09 743.096 132.477C787.299 136.309 801.185 156.376 803.66 217.558C803.75 219.786 803.198 222.024 802.089 223.958L621.867 538.017C619.165 542.726 613.622 545.054 608.399 543.568C563.39 530.763 545.821 516.91 548.151 459.92Z" fill="white"/>
<path d="M487.939 462L488.81 462.492L487.939 462ZM209.939 462L210.815 461.519L209.939 462ZM152.439 213L151.558 212.526C151.55 212.54 151.543 212.555 151.536 212.569L152.439 213ZM248.439 322.5L247.513 322.877C247.53 322.921 247.551 322.963 247.575 323.003L248.439 322.5ZM294.439 401.5L293.575 402.003C293.591 402.031 293.608 402.058 293.627 402.084L294.439 401.5ZM400.939 401.5L401.775 402.049C401.783 402.036 401.791 402.023 401.799 402.01L400.939 401.5ZM621.867 538.017L621 537.519L621.867 538.017ZM608.399 543.568L608.673 542.606L608.399 543.568ZM803.66 217.558L804.659 217.518L803.66 217.558ZM802.089 223.958L801.221 223.46L802.089 223.958ZM549.728 454.5L548.862 454.001L549.728 454.5ZM548.151 459.92L547.152 459.879L548.151 459.92ZM732.137 138.325L733.003 138.825L732.137 138.325ZM980.255 224.458L981.122 224.956L980.255 224.458ZM981.826 218.058L982.826 218.018L981.826 218.058ZM910.303 138.825L909.437 138.325L910.303 138.825ZM727.894 455L727.028 454.501L727.894 455ZM726.317 460.42L727.317 460.461L726.317 460.42ZM282.791 231.858L283.167 232.785L282.791 231.858ZM448.02 221.033L449.01 221.173L448.02 221.033ZM403.489 132.295L403.947 131.406L403.489 132.295ZM786.565 544.068L786.292 545.03L786.565 544.068ZM800.033 538.517L799.166 538.019L800.033 538.517ZM152.791 355.81L153.698 355.388L152.791 355.81ZM152.089 354.156L153.014 353.774L152.089 354.156ZM256.76 131.498L256.474 130.54L256.76 131.498ZM569.827 132.888L569.591 133.86L569.827 132.888ZM557.06 138.38L556.2 137.87L557.06 138.38ZM627.105 217.127L628.103 217.18L627.105 217.127ZM625.554 222.376L624.69 221.872L625.554 222.376ZM628.103 217.18C629.562 189.582 626.545 170.973 617.303 157.883C608.047 144.775 592.698 137.413 570.063 131.916L569.591 133.86C592.097 139.325 606.843 146.538 615.669 159.036C624.507 171.553 627.559 189.583 626.106 217.075L628.103 217.18ZM488.81 462.492C549.036 355.83 616.029 240.712 626.418 222.879L624.69 221.872C614.3 239.706 547.302 354.834 487.068 461.508L488.81 462.492ZM209.062 462.481C265.914 566.111 422.892 579.231 488.81 462.492L487.068 461.508C421.985 576.769 266.977 563.889 210.815 461.519L209.062 462.481ZM151.885 356.233C153.486 359.669 162.153 376.976 209.062 462.481L210.815 461.519C163.893 375.989 155.264 358.751 153.698 355.388L151.885 356.233ZM151.536 212.569C139.427 237.956 133.139 258.526 133.002 280.256C132.865 301.974 138.873 324.747 151.165 354.537L153.014 353.774C140.763 324.084 134.868 301.598 135.002 280.269C135.137 258.951 141.295 238.684 153.341 213.431L151.536 212.569ZM256.474 130.54C228.621 138.853 208.753 147.469 192.655 159.98C176.549 172.497 164.291 188.855 151.558 212.526L153.319 213.474C165.981 189.935 178.079 173.841 193.882 161.559C209.694 149.271 229.288 140.741 257.046 132.456L256.474 130.54ZM398.103 130H260.17V132H398.103V130ZM449.01 221.173C452.321 197.749 451.552 180.64 444.622 166.682C437.688 152.716 424.677 142.089 403.947 131.406L403.03 133.184C423.622 143.796 436.179 154.174 442.831 167.572C449.487 180.978 450.324 197.591 447.03 220.893L449.01 221.173ZM287.22 232H436.348V230H287.22V232ZM249.365 322.123C239.469 297.83 235.606 280.6 240.233 266.951C244.84 253.358 257.998 242.984 283.167 232.785L282.416 230.932C257.157 241.167 243.246 251.831 238.339 266.309C233.45 280.731 237.624 298.604 247.513 322.877L249.365 322.123ZM295.303 400.997L249.303 321.997L247.575 323.003L293.575 402.003L295.303 400.997ZM400.103 400.951C390.015 416.327 381.035 427.652 372.593 435.093C364.159 442.527 356.347 446.01 348.57 445.878C340.781 445.746 332.811 441.986 324.071 434.466C315.332 426.946 305.916 415.747 295.251 400.916L293.627 402.084C304.322 416.956 313.847 428.307 322.767 435.982C331.686 443.657 340.093 447.735 348.536 447.878C356.991 448.021 365.268 444.216 373.916 436.593C382.557 428.976 391.654 417.475 401.775 402.049L400.103 400.951ZM556.2 137.87L400.079 400.99L401.799 402.01L557.92 138.89L556.2 137.87ZM728.761 455.5L911.169 139.325L909.437 138.325L727.028 454.501L728.761 455.5ZM786.839 543.106C764.34 536.705 748.982 530.107 739.471 518.189C729.975 506.292 726.154 488.889 727.317 460.461L725.318 460.379C724.15 488.941 727.949 506.96 737.907 519.437C747.85 531.895 763.781 538.625 786.292 545.03L786.839 543.106ZM979.388 223.96L799.166 538.019L800.901 539.015L981.122 224.956L979.388 223.96ZM921.176 133.973C943.147 135.878 957.315 141.793 966.376 154.589C975.499 167.474 979.59 187.52 980.827 218.099L982.826 218.018C981.587 187.414 977.498 166.836 968.008 153.434C958.456 139.943 943.58 133.908 921.348 131.981L921.176 133.973ZM731.271 137.825L548.862 454.001L550.595 455L733.003 138.825L731.271 137.825ZM804.659 217.518C803.421 186.914 799.332 166.336 789.842 152.934C780.29 139.443 765.414 133.408 743.182 131.481L743.01 133.473C764.981 135.378 779.149 141.293 788.21 154.089C797.333 166.974 801.424 187.02 802.661 217.599L804.659 217.518ZM622.735 538.515L802.956 224.456L801.221 223.46L621 537.519L622.735 538.515ZM547.152 459.879C545.984 488.441 549.783 506.46 559.741 518.937C569.684 531.395 585.615 538.125 608.126 544.53L608.673 542.606C586.174 536.205 570.816 529.607 561.305 517.689C551.809 505.792 547.988 488.389 549.151 459.961L547.152 459.879ZM621 537.519C618.521 541.84 613.443 543.963 608.673 542.606L608.126 544.53C613.8 546.144 619.809 543.613 622.735 538.515L621 537.519ZM802.661 217.599C802.744 219.637 802.238 221.689 801.221 223.46L802.956 224.456C804.159 222.36 804.757 219.935 804.659 217.518L802.661 217.599ZM548.862 454.001C547.835 455.782 547.236 457.821 547.152 459.879L549.151 459.961C549.221 458.23 549.726 456.505 550.595 455L548.862 454.001ZM733.003 138.825C735.062 135.257 738.95 133.122 743.01 133.473L743.182 131.481C738.305 131.058 733.696 133.623 731.271 137.825L733.003 138.825ZM981.122 224.956C982.325 222.86 982.923 220.435 982.826 218.018L980.827 218.099C980.91 220.137 980.404 222.189 979.388 223.96L981.122 224.956ZM911.169 139.325C913.228 135.757 917.116 133.622 921.176 133.973L921.348 131.981C916.471 131.558 911.862 134.123 909.437 138.325L911.169 139.325ZM727.028 454.501C726.001 456.282 725.402 458.321 725.318 460.379L727.317 460.461C727.387 458.73 727.892 457.005 728.761 455.5L727.028 454.501ZM287.22 230C285.586 230 283.934 230.316 282.416 230.932L283.167 232.785C284.442 232.268 285.839 232 287.22 232V230ZM447.03 220.893C446.286 226.155 441.704 230 436.348 230V232C442.658 232 448.122 227.463 449.01 221.173L447.03 220.893ZM398.103 132C399.812 132 401.518 132.404 403.03 133.184L403.947 131.406C402.144 130.477 400.123 130 398.103 130V132ZM786.292 545.03C791.966 546.644 797.975 544.113 800.901 539.015L799.166 538.019C796.687 542.34 791.609 544.463 786.839 543.106L786.292 545.03ZM153.698 355.388C153.457 354.871 153.25 354.348 153.014 353.774L151.165 354.537C151.386 355.072 151.619 355.663 151.885 356.233L153.698 355.388ZM257.046 132.456C258.053 132.155 259.119 132 260.17 132V130C258.925 130 257.667 130.183 256.474 130.54L257.046 132.456ZM570.063 131.916C564.631 130.597 559.034 133.094 556.2 137.87L557.92 138.89C560.324 134.839 565.048 132.757 569.591 133.86L570.063 131.916ZM626.106 217.075C626.015 218.79 625.549 220.398 624.69 221.872L626.418 222.879C627.443 221.12 627.996 219.201 628.103 217.18L626.106 217.075Z" fill="black" mask="url(#path-1-outside-1_358_67)"/>
<path d="M251.496 656C245.992 656 241.032 655.168 236.616 653.504C232.2 651.776 228.456 649.376 225.384 646.304C222.312 643.232 219.944 639.68 218.28 635.648C216.616 631.552 215.784 627.136 215.784 622.4C215.784 617.664 216.616 613.28 218.28 609.248C219.944 605.152 222.312 601.568 225.384 598.496C228.52 595.424 232.264 593.056 236.616 591.392C241.032 589.664 245.992 588.8 251.496 588.8H261.864V602.24H251.88C248.872 602.24 246.12 602.752 243.624 603.776C241.192 604.8 239.08 606.24 237.288 608.096C235.56 609.888 234.216 612 233.256 614.432C232.36 616.864 231.912 619.52 231.912 622.4C231.912 625.28 232.36 627.936 233.256 630.368C234.216 632.8 235.56 634.944 237.288 636.8C239.08 638.592 241.192 640 243.624 641.024C246.12 642.048 248.872 642.56 251.88 642.56H261.864V656H251.496ZM270.693 656V585.92H285.573V610.016C287.493 608.48 289.605 607.36 291.909 606.656C294.213 605.952 296.517 605.6 298.821 605.6C303.301 605.6 307.077 606.56 310.149 608.48C313.285 610.4 315.621 613.024 317.157 616.352C318.757 619.68 319.557 623.456 319.557 627.68V656H304.677V628.256C304.677 626.4 304.229 624.768 303.333 623.36C302.501 621.888 301.349 620.736 299.877 619.904C298.469 619.008 296.901 618.56 295.173 618.56C293.445 618.56 291.845 618.976 290.373 619.808C288.901 620.64 287.717 621.76 286.821 623.168C285.989 624.576 285.573 626.176 285.573 627.968V656H270.693ZM330.693 656V606.752H345.669V656H330.693ZM338.181 601.184C335.813 601.184 333.765 600.32 332.037 598.592C330.309 596.864 329.445 594.816 329.445 592.448C329.445 590.08 330.309 588.032 332.037 586.304C333.765 584.512 335.813 583.616 338.181 583.616C340.549 583.616 342.597 584.512 344.325 586.304C346.053 588.032 346.917 590.08 346.917 592.448C346.917 594.816 346.053 596.864 344.325 598.592C342.597 600.32 340.549 601.184 338.181 601.184ZM356.568 656V627.68C356.568 623.584 357.56 619.872 359.544 616.544C361.528 613.216 364.344 610.56 367.992 608.576C371.704 606.592 376.088 605.6 381.144 605.6C386.264 605.6 390.616 606.592 394.2 608.576C397.848 610.56 400.632 613.216 402.552 616.544C404.472 619.872 405.432 623.584 405.432 627.68V656H390.552V628.064C390.552 626.336 390.136 624.768 389.304 623.36C388.472 621.888 387.32 620.736 385.848 619.904C384.44 619.008 382.84 618.56 381.048 618.56C379.192 618.56 377.528 619.008 376.056 619.904C374.648 620.736 373.528 621.888 372.696 623.36C371.864 624.768 371.448 626.336 371.448 628.064V656H356.568ZM442.296 656C436.728 656 431.832 654.976 427.608 652.928C423.384 650.816 420.088 647.936 417.72 644.288C415.416 640.576 414.264 636.288 414.264 631.424C414.264 626.048 415.384 621.44 417.624 617.6C419.864 613.76 422.84 610.816 426.552 608.768C430.328 606.656 434.488 605.6 439.032 605.6C444.216 605.6 448.536 606.688 451.992 608.864C455.512 611.04 458.168 614.016 459.96 617.792C461.752 621.504 462.648 625.76 462.648 630.56C462.648 631.392 462.584 632.384 462.456 633.536C462.392 634.624 462.296 635.488 462.168 636.128H429.912C430.296 637.792 431.032 639.2 432.12 640.352C433.208 641.504 434.584 642.368 436.248 642.944C437.912 643.456 439.768 643.712 441.816 643.712H456.888V656H442.296ZM429.528 626.816H448.248C448.12 625.792 447.928 624.8 447.672 623.84C447.416 622.88 447 622.048 446.424 621.344C445.912 620.576 445.304 619.936 444.6 619.424C443.896 618.848 443.064 618.4 442.104 618.08C441.208 617.76 440.184 617.6 439.032 617.6C437.56 617.6 436.248 617.856 435.096 618.368C433.944 618.88 432.984 619.584 432.216 620.48C431.448 621.312 430.84 622.304 430.392 623.456C430.008 624.544 429.72 625.664 429.528 626.816ZM471.414 656V644.192H495.126C495.766 644.192 496.342 644.064 496.854 643.808C497.366 643.488 497.782 643.072 498.102 642.56C498.422 642.048 498.582 641.504 498.582 640.928C498.582 640.288 498.422 639.712 498.102 639.2C497.782 638.688 497.366 638.304 496.854 638.048C496.342 637.728 495.766 637.568 495.126 637.568H486.486C483.286 637.568 480.374 637.056 477.75 636.032C475.19 634.944 473.142 633.28 471.606 631.04C470.134 628.736 469.398 625.76 469.398 622.112C469.398 619.296 470.07 616.736 471.414 614.432C472.822 612.128 474.71 610.272 477.078 608.864C479.51 607.456 482.166 606.752 485.046 606.752H508.758V618.656H487.35C486.454 618.656 485.686 618.944 485.046 619.52C484.47 620.096 484.182 620.8 484.182 621.632C484.182 622.528 484.47 623.296 485.046 623.936C485.686 624.512 486.454 624.8 487.35 624.8H495.798C499.382 624.8 502.454 625.344 505.014 626.432C507.638 627.456 509.654 629.12 511.062 631.424C512.534 633.728 513.27 636.704 513.27 640.352C513.27 643.232 512.534 645.856 511.062 648.224C509.654 650.592 507.734 652.48 505.302 653.888C502.934 655.296 500.246 656 497.238 656H471.414ZM547.952 656C542.384 656 537.488 654.976 533.264 652.928C529.04 650.816 525.744 647.936 523.376 644.288C521.072 640.576 519.92 636.288 519.92 631.424C519.92 626.048 521.04 621.44 523.28 617.6C525.52 613.76 528.496 610.816 532.208 608.768C535.984 606.656 540.144 605.6 544.688 605.6C549.872 605.6 554.192 606.688 557.648 608.864C561.168 611.04 563.824 614.016 565.616 617.792C567.408 621.504 568.304 625.76 568.304 630.56C568.304 631.392 568.24 632.384 568.112 633.536C568.048 634.624 567.952 635.488 567.824 636.128H535.568C535.952 637.792 536.688 639.2 537.776 640.352C538.864 641.504 540.24 642.368 541.904 642.944C543.568 643.456 545.424 643.712 547.472 643.712H562.544V656H547.952ZM535.184 626.816H553.904C553.776 625.792 553.584 624.8 553.328 623.84C553.072 622.88 552.656 622.048 552.08 621.344C551.568 620.576 550.96 619.936 550.256 619.424C549.552 618.848 548.72 618.4 547.76 618.08C546.864 617.76 545.84 617.6 544.688 617.6C543.216 617.6 541.904 617.856 540.752 618.368C539.6 618.88 538.64 619.584 537.872 620.48C537.104 621.312 536.496 622.304 536.048 623.456C535.664 624.544 535.376 625.664 535.184 626.816ZM629.069 657.152C623.757 657.152 619.053 656.096 614.957 653.984C610.925 651.808 607.757 648.704 605.453 644.672C603.149 640.64 601.997 635.872 601.997 630.368V588.8H617.837V630.944C617.837 633.248 618.285 635.328 619.181 637.184C620.077 639.04 621.357 640.512 623.021 641.6C624.749 642.688 626.765 643.232 629.069 643.232C631.373 643.232 633.357 642.688 635.021 641.6C636.685 640.512 637.965 639.04 638.861 637.184C639.821 635.328 640.301 633.248 640.301 630.944V588.8H656.141V630.944C656.141 633.248 656.589 635.328 657.485 637.184C658.381 639.04 659.661 640.512 661.325 641.6C663.053 642.688 665.069 643.232 667.373 643.232C669.677 643.232 671.661 642.688 673.325 641.6C675.053 640.512 676.365 639.04 677.261 637.184C678.157 635.328 678.605 633.248 678.605 630.944V588.8H694.445V630.368C694.445 635.872 693.293 640.64 690.989 644.672C688.685 648.704 685.485 651.808 681.389 653.984C677.357 656.096 672.685 657.152 667.373 657.152C664.749 657.152 662.253 656.832 659.885 656.192C657.581 655.616 655.437 654.72 653.453 653.504C651.533 652.288 649.773 650.816 648.173 649.088C646.637 650.816 644.877 652.288 642.893 653.504C640.909 654.656 638.765 655.552 636.461 656.192C634.157 656.832 631.693 657.152 629.069 657.152ZM729.608 657.152C724.552 657.152 720.008 656.032 715.976 653.792C711.944 651.552 708.744 648.48 706.376 644.576C704.072 640.672 702.92 636.288 702.92 631.424C702.92 626.496 704.072 622.112 706.376 618.272C708.744 614.368 711.944 611.296 715.976 609.056C720.008 606.752 724.552 605.6 729.608 605.6C734.664 605.6 739.176 606.752 743.144 609.056C747.176 611.296 750.344 614.368 752.648 618.272C755.016 622.112 756.2 626.496 756.2 631.424C756.2 636.288 755.016 640.672 752.648 644.576C750.344 648.48 747.176 651.552 743.144 653.792C739.112 656.032 734.6 657.152 729.608 657.152ZM729.608 644.192C731.976 644.192 734.024 643.616 735.752 642.464C737.48 641.312 738.824 639.776 739.784 637.856C740.744 635.936 741.224 633.76 741.224 631.328C741.224 628.96 740.744 626.816 739.784 624.896C738.824 622.976 737.48 621.44 735.752 620.288C734.024 619.136 731.976 618.56 729.608 618.56C727.24 618.56 725.16 619.136 723.368 620.288C721.64 621.44 720.296 622.976 719.336 624.896C718.376 626.816 717.896 628.96 717.896 631.328C717.896 633.76 718.376 635.936 719.336 637.856C720.296 639.776 721.64 641.312 723.368 642.464C725.16 643.616 727.24 644.192 729.608 644.192ZM764.653 656V621.248C764.653 616.768 765.933 613.248 768.493 610.688C771.053 608.128 774.605 606.848 779.149 606.848H793.453V618.944H782.797C781.901 618.944 781.133 619.264 780.493 619.904C779.853 620.48 779.533 621.248 779.533 622.208V656H764.653ZM800.099 656V585.92H814.979V656H800.099ZM850.07 657.152C845.974 657.152 842.262 656.512 838.934 655.232C835.67 653.952 832.918 652.128 830.678 649.76C828.438 647.328 826.71 644.48 825.494 641.216C824.278 637.952 823.67 634.4 823.67 630.56C823.67 625.568 824.662 621.216 826.646 617.504C828.694 613.792 831.478 610.88 834.998 608.768C838.582 606.656 842.678 605.6 847.286 605.6C849.27 605.6 851.126 605.856 852.854 606.368C854.646 606.88 856.246 607.648 857.654 608.672C859.126 609.632 860.342 610.784 861.302 612.128H861.59V585.92H876.47V630.464C876.47 635.84 875.382 640.544 873.206 644.576C871.03 648.608 867.958 651.712 863.99 653.888C860.086 656.064 855.446 657.152 850.07 657.152ZM850.07 644.288C852.374 644.288 854.358 643.744 856.022 642.656C857.75 641.504 859.062 639.968 859.958 638.048C860.854 636.064 861.302 633.856 861.302 631.424C861.302 628.992 860.854 626.816 859.958 624.896C859.062 622.976 857.75 621.472 856.022 620.384C854.358 619.232 852.374 618.656 850.07 618.656C847.83 618.656 845.846 619.232 844.118 620.384C842.39 621.472 841.078 622.976 840.182 624.896C839.286 626.816 838.838 628.992 838.838 631.424C838.838 633.856 839.286 636.064 840.182 638.048C841.078 639.968 842.39 641.504 844.118 642.656C845.846 643.744 847.83 644.288 850.07 644.288Z" fill="white"/>
</svg>
