<svg width="1115" height="819" viewBox="0 0 1115 819" fill="none" xmlns="http://www.w3.org/2000/svg">
<g filter="url(#filter0_d_358_67)">
<path fill-rule="evenodd" clip-rule="evenodd" d="M195.744 154.354C193.934 156.763 193.029 157.967 192.514 159.509C192 161.05 192 162.655 192 165.864V482.419C192 482.696 192.371 482.787 192.499 482.541C192.628 482.294 193.003 482.388 193.002 482.666C192.919 502.913 195.836 523.205 201.784 542.863C215.485 588.138 244.421 627.25 283.664 653.536C322.906 679.821 370.026 691.653 416.996 687.015C458.417 682.926 497.461 666.25 528.996 639.423C534.783 634.5 537.676 632.038 538.175 628.214C538.674 624.39 536.363 621.058 531.74 614.393L528 609L519.5 595.5L508.5 572.5L498.828 549.287C498.672 548.912 498.184 548.816 497.896 549.102L497.676 549.32C497.568 549.426 497.4 549.443 497.273 549.359L432.643 506.656C429.116 504.325 428.27 499.603 429.954 495.724C431.554 492.04 435.299 489.376 439.256 490.069L502.035 501.058C509.078 502.29 512.6 502.907 514.835 505.143C517.07 507.379 517.729 511.16 519.048 518.721C525.069 553.241 539.879 585.839 562.306 613.233C592.247 649.806 633.912 674.84 680.202 684.07C726.491 693.301 774.541 686.156 816.165 663.853C857.789 641.55 890.41 605.469 908.471 561.759C926.533 518.048 928.916 469.412 915.216 424.137C901.515 378.862 872.579 339.75 833.336 313.464C794.094 287.179 746.974 275.347 700.004 279.985C677.222 282.234 655.16 288.291 634.67 297.75C618.371 305.274 610.222 309.036 605.611 306.086C601 303.136 601 294.876 601 278.355V165.351C601 162.403 601 160.929 600.569 159.508C600.138 158.088 599.36 156.925 597.804 154.598C588.137 140.141 580.353 132.716 560.966 131.109C560.294 131.053 559.958 131.025 559.522 131.027C559.086 131.029 558.737 131.061 558.039 131.125C539.582 132.82 529.927 138.066 518.622 154.693C517.13 156.887 516.385 157.984 515.942 159.421C515.5 160.859 515.5 162.313 515.5 165.223V273.538C515.5 278.845 515.5 281.498 516.673 283.702C517.846 285.905 520.124 287.438 524.679 290.503C546.175 304.968 558.593 316.711 575.75 338.897L585.475 349.846C585.987 350.423 586.243 350.711 586.476 351.018C586.709 351.325 586.918 351.649 587.336 352.298L600.668 373L612 396.5L617.88 414.14C618.562 416.185 621.286 416.61 622.628 414.922C623.486 413.842 625.023 413.636 626.162 414.415L685.834 455.216C689.19 457.51 689.953 462.052 688.276 465.756C686.595 469.47 682.634 472.029 678.683 471.023L611.038 453.802C605.004 452.265 601.986 451.497 600.022 449.486C598.059 447.474 597.313 444.219 595.82 437.709C588.809 407.119 574.818 378.348 554.694 353.767C524.753 317.194 483.088 292.16 436.798 282.929C390.509 273.699 342.459 280.844 300.835 303.147C294.678 306.446 291.599 308.096 289.771 308.33C284.879 308.957 280.915 306.584 279.157 301.976C278.5 300.254 278.5 297.075 278.5 290.718V164.457C278.5 161.913 278.5 160.641 278.139 159.334C277.778 158.027 277.209 157.077 276.072 155.175C266.781 139.639 254.82 131 236 131C217.429 131 207.523 138.675 195.744 154.354ZM695.119 447.501C697.429 449.967 701.188 450.218 704.145 448.585C707.401 446.788 709.318 442.942 707.995 439.467L689.001 389.573C685.574 380.571 683.861 376.07 679.531 374.515C675.201 372.961 671.414 375.117 663.839 379.431C663.066 379.871 662.293 380.321 661.521 380.781C653.526 385.544 649.529 387.925 648.859 392.667C648.189 397.408 651.687 401.142 658.682 408.609L695.119 447.501ZM722 444C721.078 444 720.281 443.327 720.173 442.41L713.411 384.917C712.238 374.946 711.652 369.96 715.009 366.543C718.366 363.125 722.841 363.57 731.79 364.461C732.556 364.537 733.321 364.621 734.085 364.712C742.457 365.71 746.644 366.208 749.207 369.954C751.77 373.699 750.597 378.255 748.251 387.369L736.073 434.687C735.72 436.058 735.543 436.743 735.466 436.99C733.898 441.996 731.679 443.715 726.441 443.987C726.182 444 724.788 444 722 444ZM744.53 445.294C743.231 448.01 744.184 451.233 746.443 453.223C749.065 455.532 753.08 455.871 755.642 453.497L794.749 417.251C801.706 410.803 805.184 407.579 805.031 403.015C804.878 398.45 801.574 395.776 794.966 390.428C792.183 388.175 789.292 386.042 786.297 384.036C786.211 383.978 786.167 383.949 785.879 383.783C781.352 381.169 774.725 382.984 772.163 387.54C772 387.83 771.908 388.022 771.725 388.405L744.53 445.294ZM759.704 463.23C757.429 464.725 756.606 467.598 757.4 470.203C758.341 473.292 761.377 475.521 764.535 474.849L826.107 461.761C826.839 461.605 827.206 461.528 827.647 461.39C832.253 459.956 835.436 454.569 834.472 449.842C834.379 449.389 834.317 449.184 834.193 448.775C833.378 446.08 832.47 443.422 831.473 440.806C828.263 432.385 826.659 428.174 822.097 426.7C817.536 425.225 813.335 427.986 804.932 433.508L759.704 463.23ZM761.604 497.759C758.547 496.602 757.102 493.18 757.895 490.009C758.591 487.229 760.918 484.976 763.783 484.897L818.894 483.363C828.754 483.088 833.684 482.951 836.784 486.507C839.884 490.063 839.16 494.425 837.711 503.149C837.614 503.732 837.513 504.315 837.407 504.897C835.842 513.529 835.059 517.845 830.98 520.152C826.901 522.46 822.325 520.729 813.173 517.267L761.604 497.759ZM742.761 511.631C747.221 508.602 749.451 507.087 750.545 506.671C753.151 505.68 754.092 505.636 756.779 506.383C757.906 506.696 759.409 507.525 762.416 509.183L805.801 533.112C814.382 537.844 818.672 540.21 819.555 544.82C820.438 549.429 817.648 552.82 812.068 559.604C810.85 561.085 809.596 562.536 808.308 563.957C802.439 570.43 799.505 573.667 794.834 573.48C790.164 573.292 787.19 569.429 781.241 561.704L745.487 515.271C744.083 513.448 741.494 513.053 739.611 514.375C737.804 515.643 737.252 518.073 738.332 519.997L776.527 588.051C776.717 588.389 776.594 588.816 776.253 588.999C773.121 590.677 769.927 592.208 766.681 593.592C758.565 597.05 754.508 598.779 750.323 596.61C746.138 594.441 745.103 589.627 743.035 580.001L732.559 531.248C731.74 527.435 731.33 525.529 731.38 524.268C731.501 521.184 731.833 520.358 733.875 518.044C734.71 517.098 737.394 515.276 742.761 511.631ZM717.281 517.702C719.323 517.962 720.994 519.63 720.988 521.689L720.811 583.306C720.783 592.894 720.769 597.688 717.254 600.672C713.74 603.656 709.499 602.971 701.018 601.601C699.583 601.369 698.15 601.111 696.72 600.826C689.819 599.45 686.369 598.762 684.084 595.839C683.364 594.917 682.672 593.559 682.35 592.435C681.328 588.868 682.981 585.277 686.288 578.095L713.059 519.952C713.799 518.344 715.525 517.478 717.281 517.702ZM603.198 479.2C601.978 479.16 600.976 480.152 600.989 481.372C600.996 482.026 600.999 482.68 601 483.334C601 483.426 600.926 483.5 600.834 483.5C600.743 483.5 600.668 483.574 600.669 483.666C600.676 489.015 601.041 494.332 601.752 499.583C602.395 504.34 602.717 506.718 604.275 508.797C605.465 510.387 607.547 511.833 609.452 512.395C611.944 513.129 614.597 512.531 619.901 511.334L680.178 497.74C684.303 496.81 686.542 492.421 685.715 488.275C685.018 484.781 682.224 481.778 678.664 481.661L603.198 479.2ZM624.026 554.589C618.562 547.177 615.83 543.47 617.146 538.77C618.461 534.069 623.215 532.118 632.721 528.214L686.52 506.123C690.165 504.626 694.284 505.825 697.209 508.467C701.3 512.162 702.96 518.499 699.66 522.915L665.715 568.341C660.232 575.679 657.49 579.349 653.074 579.765C648.658 580.182 645.628 577.411 639.569 571.869C635.358 568.018 631.408 563.85 627.755 559.389C626.469 557.818 625.226 556.217 624.026 554.589ZM417.201 511.327C419.004 510.064 421.459 510.063 423.102 511.529L468.439 551.99C472.341 555.472 474.293 557.214 475.168 559.285C476.321 562.013 476.143 565.415 474.712 568.008C473.626 569.977 471.698 571.366 467.843 574.143C464.132 576.816 462.277 578.152 460.253 578.595C457.592 579.178 454.523 578.549 452.306 576.967C450.619 575.764 449.42 573.774 447.022 569.795L415.634 517.714C414.335 515.56 415.141 512.77 417.201 511.327ZM406.485 524.704C405.022 520.401 400.544 518 396 518C395.436 518 394.956 518.421 394.899 518.982L388.475 582.518C387.492 592.243 387 597.106 390.281 600.452C393.562 603.797 397.926 603.442 406.655 602.732C407.335 602.677 408.016 602.615 408.697 602.548C410.214 602.398 411.779 602.16 413.384 601.84C420.964 600.327 424.753 599.571 427.017 595.646C429.28 591.72 427.804 587.382 424.853 578.706L406.485 524.704ZM486.277 422.542C486.641 422.324 486.823 422.215 487.096 422.026C491.397 419.042 492.576 412.263 489.536 408.002C489.343 407.732 489.31 407.692 489.245 407.611C487.026 404.902 484.698 402.3 482.268 399.812C476.349 393.752 473.39 390.721 468.843 390.983C464.297 391.244 461.404 394.982 455.619 402.456L421.478 446.567C419.52 449.096 420.067 452.716 422.316 454.991C424.37 457.069 427.575 457.744 430.08 456.242L486.277 422.542ZM513.286 456.644C511.396 448.42 510.45 444.307 506.455 442.16C502.459 440.012 498.052 441.664 489.239 444.967L436.504 464.729C433.097 466.006 431.453 469.768 432.203 473.327C432.901 476.634 435.575 479.424 438.953 479.529L495.43 481.276C505.49 481.587 510.52 481.743 513.637 478.095C516.753 474.448 515.913 470.016 514.231 461.152C513.945 459.642 513.629 458.14 513.286 456.644ZM405.284 445.174C408.033 445.885 410.993 444.83 412.336 442.328L438.304 393.947C443.082 385.046 445.471 380.596 443.574 376.171C441.678 371.745 437.315 370.545 428.591 368.144C425.853 367.39 423.081 366.733 420.28 366.174C419.379 365.995 418.928 365.905 418.233 365.865C413.77 365.606 409.1 369.006 407.976 373.334C407.801 374.007 407.728 374.639 407.582 375.904L400.33 438.574C399.974 441.655 402.281 444.398 405.284 445.174ZM364.225 368.476C372.655 366.062 376.87 364.856 380.747 367.503C380.785 367.529 380.834 367.563 380.87 367.589C384.708 370.294 385.095 375.191 385.868 384.987L390.144 439.12C390.379 442.09 388.206 444.699 385.352 445.555C382.366 446.451 379.048 445.29 377.698 442.479L354.187 393.535C350.034 384.889 347.958 380.566 349.812 376.355C349.83 376.314 349.854 376.261 349.872 376.221C351.788 372.037 355.934 370.85 364.225 368.476ZM368.924 455.783C370.974 453.583 371.356 450.166 369.432 447.855L334.433 405.833C328.308 398.48 325.246 394.803 320.644 394.74C316.043 394.676 313.209 397.895 307.54 404.332C307.443 404.442 307.347 404.552 307.251 404.661C301.258 411.517 298.261 414.945 299.139 419.701C300.018 424.457 304.507 426.836 313.486 431.594L361.826 457.208C364.194 458.462 367.097 457.744 368.924 455.783ZM298.775 484.932C288.641 485.759 283.575 486.172 280.273 482.636C276.972 479.101 277.653 474.595 279.014 465.583C279.076 465.177 279.139 464.77 279.205 464.364C280.527 456.189 281.187 452.101 284.944 449.689C288.701 447.277 293.152 448.504 302.055 450.959L354.665 465.462C358.362 466.482 360.329 470.411 359.627 474.181C359.024 477.417 356.526 480.218 353.246 480.486L298.775 484.932ZM282.807 518.225C281.808 514.923 283.757 511.504 287.055 510.491L352.806 490.287C356.489 489.155 360.317 491.553 361.787 495.114C363.172 498.466 362.276 502.467 359.189 504.37L311.645 533.687C303.267 538.853 299.078 541.436 294.619 539.92C290.16 538.403 288.595 534.279 285.465 526.03C284.492 523.466 283.605 520.864 282.807 518.225ZM322.569 549.431C315.293 555.818 311.655 559.011 311.745 563.656C311.836 568.302 315.205 571.034 321.944 576.499C324.754 578.779 327.676 580.936 330.703 582.964C334.113 585.248 337.625 587.346 341.223 589.253C348.929 593.337 352.782 595.379 357.107 593.621C361.432 591.862 362.921 587.229 365.9 577.962L382.745 525.557C384.334 520.614 381.382 515.396 376.934 512.716C372.82 510.237 367.475 510.016 363.866 513.184L322.569 549.431ZM377.678 481C377.678 491.119 385.881 499.322 396 499.322C406.119 499.322 414.322 491.119 414.322 481C414.322 470.881 406.119 462.678 396 462.678C385.881 462.678 377.678 470.881 377.678 481ZM722 499.322C711.881 499.322 703.678 491.119 703.678 481C703.678 470.881 711.881 462.678 722 462.678C732.119 462.678 740.322 470.881 740.322 481C740.322 491.119 732.119 499.322 722 499.322ZM409 481.5C409 488.404 403.404 494 396.5 494C389.596 494 384 488.404 384 481.5C384 474.596 389.596 469 396.5 469C403.404 469 409 474.596 409 481.5ZM390.31 481.5C390.31 484.919 393.081 487.69 396.5 487.69C399.919 487.69 402.69 484.919 402.69 481.5C402.69 478.081 399.919 475.31 396.5 475.31C393.081 475.31 390.31 478.081 390.31 481.5ZM722.5 494C729.404 494 735 488.404 735 481.5C735 474.596 729.404 469 722.5 469C715.596 469 710 474.596 710 481.5C710 488.404 715.596 494 722.5 494ZM722.5 487.69C719.081 487.69 716.31 484.919 716.31 481.5C716.31 478.081 719.081 475.31 722.5 475.31C725.919 475.31 728.69 478.081 728.69 481.5C728.69 484.919 725.919 487.69 722.5 487.69ZM399 481.5C399 482.881 397.881 484 396.5 484C395.119 484 394 482.881 394 481.5C394 480.119 395.119 479 396.5 479C397.881 479 399 480.119 399 481.5ZM722.5 484C723.881 484 725 482.881 725 481.5C725 480.119 723.881 479 722.5 479C721.119 479 720 480.119 720 481.5C720 482.881 721.119 484 722.5 484Z" fill="white"/>
</g>
<defs>
<filter id="filter0_d_358_67" x="172" y="112" width="798" height="623" filterUnits="userSpaceOnUse" color-interpolation-filters="sRGB">
<feFlood flood-opacity="0" result="BackgroundImageFix"/>
<feColorMatrix in="SourceAlpha" type="matrix" values="0 0 0 0 0 0 0 0 0 0 0 0 0 0 0 0 0 0 127 0" result="hardAlpha"/>
<feOffset dx="13" dy="14"/>
<feGaussianBlur stdDeviation="16.5"/>
<feComposite in2="hardAlpha" operator="out"/>
<feColorMatrix type="matrix" values="0 0 0 0 0 0 0 0 0 0 0 0 0 0 0 0 0 0 0.25 0"/>
<feBlend mode="normal" in2="BackgroundImageFix" result="effect1_dropShadow_358_67"/>
<feBlend mode="normal" in="SourceGraphic" in2="effect1_dropShadow_358_67" result="shape"/>
</filter>
</defs>
</svg>
