<svg width="954" height="701" viewBox="0 0 954 701" fill="none" xmlns="http://www.w3.org/2000/svg">
<path fill-rule="evenodd" clip-rule="evenodd" d="M453.513 119.224C430.441 96.2143 393.084 96.2653 370.075 119.338L359.843 129.597L425.755 195.33L266.318 359.624C253.626 372.703 253.939 393.595 267.018 406.288L456.085 589.765C469.164 602.458 490.056 602.144 502.749 589.065L687.292 398.9C699.985 385.821 699.671 364.929 686.592 352.236L659.134 325.59L659.149 325.575L650.249 316.864L650.197 316.917L537.115 207.178L537.125 207.168L528.226 198.457L528.179 198.505L527.698 198.039L589.852 136.055L579.62 125.795C556.61 102.723 519.254 102.672 496.181 125.681L478.085 143.728L453.513 119.224ZM528.179 198.505L371.999 358.065L380.898 366.776L537.115 207.178L528.179 198.505ZM650.197 316.917L493.292 477.218L502.191 485.929L659.134 325.59L650.197 316.917ZM598.322 266.67L589.423 257.959L433.359 417.4L442.258 426.111L598.322 266.67Z" fill="white"/>
</svg>
