<svg width="615" height="515" viewBox="0 0 615 515" fill="none" xmlns="http://www.w3.org/2000/svg">
<path d="M317.767 332.752C386.803 281.131 424.741 294.814 436.558 204.011C465.167 268.692 411.058 281.753 443.399 333.374C447.752 344.569 431.582 340.837 426.607 349.544C423.497 357.63 431.582 362.605 418.521 366.337C429.094 378.776 409.192 375.666 407.327 381.885C410.436 435.994 356.327 380.641 315.279 386.239C286.554 388.757 265.183 424.661 316.523 435.994C372.498 442.835 423.497 422.933 456.46 382.507C519.276 311.606 508.703 174.779 383.071 131.244C403.877 222.356 373.742 284.241 317.767 332.752Z" fill="white"/>
<path d="M366.033 182.707C385.936 211.938 354.839 295.278 279.584 330.729C306.759 303.327 319.916 288.257 328.095 263.559C296.016 311.146 260.926 335.704 211.17 357.472C209.304 330.107 228.585 307.717 269.011 294.034C239.158 271.645 244.755 249.255 288.913 235.572C261.92 229.637 250.746 224.071 249.109 203.853C249.109 171.512 299.486 128.598 299.486 83.1968C328.475 125.172 342.4 159.695 344.887 209.451C346.541 197.861 348.261 191.527 354.217 180.841C351.003 168.478 352.58 162.148 357.203 159.756V159.23C352.764 138.064 350.048 128.119 340.534 111.184C323.12 82.5747 352.849 90.1947 359.69 158.608L359.553 158.922C360.369 158.741 361.246 158.638 362.178 158.608C363.051 158.711 363.882 158.88 364.666 159.111V158.922C363.361 139.937 362.119 128.931 355.337 109.475C345.386 90.8167 367.776 84.4105 367.776 160.287V160.496C373.922 164.358 374.96 173.285 366.033 182.707Z" fill="white"/>
<path d="M253.242 240.082C172.39 229.509 260.083 135.597 245.156 79C264.204 94.3768 270.687 103.721 280.607 120.67C253.242 164.206 216.421 217.948 263.815 238.217C237.727 257.027 236.484 268.564 251.376 290.459C214.682 279.265 217.791 263.094 253.242 240.082Z" fill="white"/>
<path d="M438.677 87.707C438.677 101.447 427.539 112.585 413.799 112.585C427.539 112.585 438.677 123.723 438.677 137.462C438.677 123.723 449.815 112.585 463.554 112.585C449.815 112.585 438.677 101.447 438.677 87.707Z" fill="white"/>
<path d="M161.914 336.483C161.914 360.184 142.701 379.397 119 379.397C142.701 379.397 161.914 398.61 161.914 422.311C161.914 398.61 181.127 379.397 204.828 379.397C181.127 379.397 161.914 360.184 161.914 336.483Z" fill="white"/>
<path d="M187.413 296.679C187.413 310.418 176.275 321.556 162.536 321.556C176.275 321.556 187.413 332.694 187.413 346.434C187.413 332.694 198.551 321.556 212.291 321.556C198.551 321.556 187.413 310.418 187.413 296.679Z" fill="white"/>
<path d="M211.565 396.189C211.565 403.345 205.764 409.147 198.608 409.147C205.764 409.147 211.565 414.948 211.565 422.104C211.565 414.948 217.367 409.147 224.523 409.147C217.367 409.147 211.565 403.345 211.565 396.189Z" fill="white"/>
<path d="M460.341 131.243C460.341 138.399 454.54 144.2 447.384 144.2C454.54 144.2 460.341 150.001 460.341 157.157C460.341 150.001 466.142 144.2 473.298 144.2C466.142 144.2 460.341 138.399 460.341 131.243Z" fill="white"/>
</svg>
